<svg width="318" height="789" fill="none" xmlns="http://www.w3.org/2000/svg"><circle cx="233" cy="546" r="40" fill="url(#paint0_linear)" fill-opacity=".76"/><path fill-rule="evenodd" clip-rule="evenodd" d="M317 394.5C317 611.824 140.824 788-76.5 788S-470 611.824-470 394.5-293.824 1-76.5 1 317 177.176 317 394.5zm1 0C318 612.376 141.376 789-76.5 789S-471 612.376-471 394.5-294.376 0-76.5 0 318 176.624 318 394.5zM-100.5 743C94.18 743 252 589.881 252 401S94.18 59-100.5 59-453 212.119-453 401s157.82 342 352.5 342z" fill="url(#paint1_linear)"/><defs><linearGradient id="paint0_linear" x1="233" y1="506" x2="198.015" y2="562.269" gradientUnits="userSpaceOnUse"><stop stop-color="#FF6238"/><stop offset="1" stop-color="#212A37"/></linearGradient><linearGradient id="paint1_linear" x1="-100.5" y1="59" x2="-395.537" y2="548.103" gradientUnits="userSpaceOnUse"><stop stop-color="#FF6238"/><stop offset="1" stop-color="#212A37"/></linearGradient></defs></svg>