<svg width="20" height="20" viewBox="0 0 20 20" fill="none" xmlns="http://www.w3.org/2000/svg">
<path d="M3.95833 20H16.0417C18.2242 20 20 18.2242 20 16.0417V3.95833C20 1.77583 18.2242 0 16.0417 0H3.95833C1.77583 0 0 1.77583 0 3.95833V16.0417C0 18.2242 1.77583 20 3.95833 20ZM1.25 3.95833C1.25 2.465 2.465 1.25 3.95833 1.25H16.0417C17.535 1.25 18.75 2.465 18.75 3.95833V16.0417C18.75 17.535 17.535 18.75 16.0417 18.75H3.95833C2.465 18.75 1.25 17.535 1.25 16.0417V3.95833Z" fill="black"/>
<path d="M10.0001 15.1083C12.8167 15.1083 15.1084 12.8167 15.1084 10C15.1084 7.18333 12.8167 4.89166 10.0001 4.89166C7.18339 4.89166 4.89172 7.18333 4.89172 10C4.89172 12.8167 7.18339 15.1083 10.0001 15.1083ZM10.0001 6.14166C12.1276 6.14166 13.8584 7.8725 13.8584 10C13.8584 12.1275 12.1276 13.8583 10.0001 13.8583C7.87256 13.8583 6.14172 12.1275 6.14172 10C6.14172 7.8725 7.87256 6.14166 10.0001 6.14166Z" fill="black"/>
<path d="M15.2983 6.13496C16.1199 6.13496 16.7391 5.5183 16.7391 4.7008C16.7391 3.8483 16.0874 3.26663 15.2991 3.26663C14.4774 3.26663 13.8583 3.8833 13.8583 4.7008C13.8583 5.55163 14.5066 6.13496 15.2983 6.13496ZM15.4458 4.5633C15.7091 4.7958 15.1083 5.0783 15.1083 4.70163C15.1083 4.47663 15.4141 4.53496 15.4458 4.5633Z" fill="black"/>
</svg>
