<svg width="20" height="20" viewBox="0 0 20 20" fill="none" xmlns="http://www.w3.org/2000/svg">
<g clip-path="url(#clip0)">
<path d="M11.1085 15.0634C14.4835 15.8667 15.671 12.98 15.076 11.9025C14.8377 11.4725 12.696 10.6467 12.5919 10.6067C11.6719 10.2717 11.3319 10.8967 10.6944 11.7192C9.47019 11.1067 8.64936 10.6242 7.80603 9.25252C7.85353 9.19335 7.91686 9.12335 7.96436 9.07002C8.25936 8.74002 8.81186 8.12502 8.43519 7.37252C8.11853 6.74169 7.96103 6.30169 7.84519 5.97919C7.50936 5.04502 7.25353 4.79169 6.09686 4.79169C4.89269 4.79169 3.95853 6.37419 3.95853 7.73669C3.95853 10.7109 7.95686 14.3109 11.1085 15.0634ZM6.09686 6.04169C6.34686 6.04169 6.47353 6.05002 6.53686 6.06002C6.67186 6.34585 6.80853 6.94252 7.31186 7.87085C7.23353 8.16335 6.12103 8.84919 6.63686 9.73585C7.69103 11.5259 8.74603 12.1467 10.2577 12.8984C11.2644 13.3534 11.586 12.5292 12.2244 11.805C12.5202 11.925 13.5185 12.3667 13.9569 12.5884C13.9177 13.4517 13.0844 14.2484 11.3985 13.8467C8.50519 13.1559 5.20769 9.90085 5.20769 7.73585C5.20853 6.91252 5.78603 6.04169 6.09686 6.04169Z" fill="black"/>
<path d="M0.0690518 19.2375C-0.0401149 19.6325 0.255718 20.0283 0.671552 20.0283C0.821552 20.0283 0.576552 20.0667 5.54488 18.7783C7.56738 19.8083 9.10488 19.7758 10.0866 19.8683C18.8824 19.8683 23.1907 9.14085 17.1374 2.89918C8.83989 -5.12082 -4.08261 4.84585 1.32489 14.6717L0.0690518 19.2375ZM16.1424 3.67751C16.2866 3.94085 20.4216 7.67001 18.1191 13.2425C16.7016 16.6758 13.4307 18.7917 9.76572 18.5933C6.78405 18.4275 6.01238 17.3625 5.46322 17.5083L1.56072 18.525L2.59822 14.755C2.64322 14.5933 2.62072 14.4208 2.53738 14.2758C-2.44845 5.67252 8.82572 -3.17332 16.1424 3.67751Z" fill="black"/>
</g>
<defs>
<clipPath id="clip0">
<rect width="20" height="20" fill="white"/>
</clipPath>
</defs>
</svg>
